<svg xmlns="http://www.w3.org/2000/svg" viewBox="0 0 44.43 43.07"><g id="Layer_2" data-name="Layer 2"><g id="Layer_1-2" data-name="Layer 1"><path d="M37.19,43.07h-30A7.25,7.25,0,0,1,0,35.83V17.65a1,1,0,0,1,2,0V35.83a5.24,5.24,0,0,0,5.23,5.24h30a5.25,5.25,0,0,0,5.24-5.24V17.65a1,1,0,0,1,2,0V35.83A7.25,7.25,0,0,1,37.19,43.07Z"/><path d="M3,41.37a1,1,0,0,1-.87-.51,1,1,0,0,1,.38-1.36L42.94,16.78a1,1,0,1,1,1,1.74L3.46,41.24A1,1,0,0,1,3,41.37Z"/><path d="M1,18.65a1,1,0,0,1-.87-.51,1,1,0,0,1,.38-1.36l5.42-3a1,1,0,0,1,1,1.74l-5.42,3A1,1,0,0,1,1,18.65Z"/><path d="M43.42,18.65a.94.94,0,0,1-.48-.13l-5.42-3a1,1,0,0,1,1-1.74l5.41,3a1,1,0,0,1,.39,1.36A1,1,0,0,1,43.42,18.65Z"/><path d="M41.45,41.37a1,1,0,0,1-.49-.13L.51,18.52a1,1,0,1,1,1-1.74L41.94,39.5a1,1,0,0,1,.39,1.36A1,1,0,0,1,41.45,41.37Z"/><path d="M37.81,21.8a1,1,0,0,1-1-1V2H7.62V20.8a1,1,0,0,1-2,0V1a1,1,0,0,1,1-1H37.81a1,1,0,0,1,1,1V20.8A1,1,0,0,1,37.81,21.8Z"/><path d="M18.57,16.15H11a1,1,0,0,1-1-1V5.47a1,1,0,0,1,1-1h7.62a1,1,0,0,1,1,1v9.68A1,1,0,0,1,18.57,16.15Zm-6.62-2h5.62V6.47H12Z"/><path d="M33.48,6.47H22.21a1,1,0,0,1,0-2H33.48a1,1,0,0,1,0,2Z"/><path d="M33.48,11.31H22.21a1,1,0,0,1,0-2H33.48a1,1,0,0,1,0,2Z"/><path d="M33.48,16.15H22.21a1,1,0,0,1,0-2H33.48a1,1,0,1,1,0,2Z"/></g></g></svg>