<svg xmlns="http://www.w3.org/2000/svg" viewBox="0 0 41.59 42.19"><g id="Layer_2" data-name="Layer 2"><g id="Layer_1-2" data-name="Layer 1"><path d="M40.59,42.19H1a1,1,0,0,1-1-1V35.38a8,8,0,0,1,4.17-7l10.75-5.81a1,1,0,1,1,1,1.75L5.12,30.14A6,6,0,0,0,2,35.38v4.81H39.59V35.38a5.94,5.94,0,0,0-3.12-5.24L25.72,24.32a1,1,0,0,1,1-1.75l10.75,5.81a7.93,7.93,0,0,1,4.17,7v5.81A1,1,0,0,1,40.59,42.19Z"/><path d="M20.8,32a1,1,0,0,1-.71-.3l-3-3a1,1,0,0,1,0-1.42l3-3a1,1,0,0,1,1.41,0l3,3a1,1,0,0,1,0,1.42l-3,3A1,1,0,0,1,20.8,32Zm-1.58-4,1.58,1.58L22.38,28,20.8,26.38Z"/><path d="M23.79,42.19h-6a1,1,0,0,1-1-1.28l3-10.24a1,1,0,0,1,1-.71,1,1,0,0,1,1,.71l3,10.24a1,1,0,0,1-.16.88A1,1,0,0,1,23.79,42.19Zm-4.65-2h3.32L20.8,34.52Z"/><path d="M20.8,26A10.22,10.22,0,0,1,10.59,15.75V10.21a10.21,10.21,0,0,1,20.42,0v5.54A10.22,10.22,0,0,1,20.8,26Zm0-24a8.22,8.22,0,0,0-8.21,8.21v5.54a8.21,8.21,0,0,0,16.42,0V10.21A8.22,8.22,0,0,0,20.8,2Z"/><path d="M17.43,10.33h-.64a18.82,18.82,0,0,1-5.34-1,1,1,0,0,1-.64-1.26,1,1,0,0,1,1.26-.64,17.12,17.12,0,0,0,4.79.86,17.67,17.67,0,0,0,8.8-2.06A1,1,0,0,1,26.59,8,19.86,19.86,0,0,1,17.43,10.33Z"/></g></g></svg>