<svg xmlns="http://www.w3.org/2000/svg" viewBox="0 0 49.84 49.84"><g id="Layer_2" data-name="Layer 2"><g id="Layer_1-2" data-name="Layer 1"><path d="M45.5,49.84H10.68A4.35,4.35,0,0,1,6.34,45.5V28.09a1,1,0,0,1,2,0V45.5a2.34,2.34,0,0,0,2.34,2.34H45.5a2.34,2.34,0,0,0,2.34-2.34V10.68A2.34,2.34,0,0,0,45.5,8.34H28.09a1,1,0,0,1,0-2H45.5a4.34,4.34,0,0,1,4.34,4.34V45.5A4.35,4.35,0,0,1,45.5,49.84Z"/><path d="M17.71,35.42a5.17,5.17,0,0,1-1-.11,4.49,4.49,0,0,1-3.06-6.22H7.34a1,1,0,0,1-1-1V21.82A4.52,4.52,0,0,1,1,20.52a4.53,4.53,0,0,1-.86-3.85A4.45,4.45,0,0,1,3.5,13.32a4.59,4.59,0,0,1,2.84.28V10.68a4.34,4.34,0,0,1,4.34-4.34h2.93a4.5,4.5,0,1,1,8.21,0h6.27a1,1,0,0,1,1,1V13.6a4.55,4.55,0,0,1,2.83-.28,4.45,4.45,0,0,1,3.39,3.35,4.51,4.51,0,0,1-4.38,5.54,4.44,4.44,0,0,1-1.84-.39v6.27a1,1,0,0,1-1,1H21.82a4.42,4.42,0,0,1,.39,1.83,4.49,4.49,0,0,1-4.5,4.5ZM8.34,27.09h6a1.56,1.56,0,0,1,1.31,2.44,2.47,2.47,0,0,0-.38,2,2.5,2.5,0,1,0,4.51-2,1.5,1.5,0,0,1-.09-1.58,1.56,1.56,0,0,1,1.4-.85h6v-6a1.56,1.56,0,0,1,.85-1.4,1.5,1.5,0,0,1,1.58.09,2.55,2.55,0,0,0,3.36-.51,2.5,2.5,0,0,0-3.35-3.63,1.54,1.54,0,0,1-1.6.09,1.57,1.57,0,0,1-.84-1.39v-6h-6a1.58,1.58,0,0,1-1.4-.85,1.52,1.52,0,0,1,.09-1.59,2.52,2.52,0,0,0,.37-2,2.48,2.48,0,0,0-1.84-1.86,2.5,2.5,0,0,0-3.1,2.43,2.42,2.42,0,0,0,.44,1.4,1.52,1.52,0,0,1,.09,1.58,1.58,1.58,0,0,1-1.4.86H10.68a2.34,2.34,0,0,0-2.34,2.34v3.66a1.58,1.58,0,0,1-.85,1.39,1.52,1.52,0,0,1-1.59-.09,2.52,2.52,0,0,0-2-.37,2.48,2.48,0,0,0-1.86,1.84,2.52,2.52,0,0,0,.47,2.16,2.56,2.56,0,0,0,3.36.51,1.5,1.5,0,0,1,1.58-.09,1.57,1.57,0,0,1,.86,1.4Z"/><path d="M17.71,21.11a1,1,0,0,1-1-1,2.92,2.92,0,0,1,2.92-2.92.92.92,0,0,0,.94-.91V16a.92.92,0,0,0-.92-.91H15.77a.91.91,0,0,0-.91.91v.15a1,1,0,0,1-2,0V16a2.92,2.92,0,0,1,2.91-2.91h3.88A2.92,2.92,0,0,1,22.57,16v.3a2.93,2.93,0,0,1-2.94,2.91.92.92,0,0,0-.92.92A1,1,0,0,1,17.71,21.11Z"/><path d="M17.71,24.07a1,1,0,0,1-1-1v-.36a1,1,0,0,1,2,0v.36A1,1,0,0,1,17.71,24.07Z"/><path d="M28.09,49.84a1,1,0,0,1-1-1V42.57A4.5,4.5,0,1,1,25.25,34a4.44,4.44,0,0,1,1.84.4V28.09a1,1,0,0,1,2,0v7a1.59,1.59,0,0,1-.85,1.4,1.54,1.54,0,0,1-1.59-.09,2.54,2.54,0,0,0-3.35.51,2.49,2.49,0,0,0,1.38,4,2.52,2.52,0,0,0,2-.37,1.54,1.54,0,0,1,1.59-.09,1.59,1.59,0,0,1,.85,1.4v7A1,1,0,0,1,28.09,49.84Z"/><path d="M38.47,35.42a4.5,4.5,0,0,1-4.11-6.33H28.09a1,1,0,0,1,0-2h7a1.56,1.56,0,0,1,1.4.85,1.52,1.52,0,0,1-.09,1.58,2.5,2.5,0,1,0,4.5,2,2.46,2.46,0,0,0-.37-2,1.56,1.56,0,0,1-.09-1.6,1.58,1.58,0,0,1,1.4-.84h7a1,1,0,0,1,0,2H42.57a4.49,4.49,0,0,1-3.06,6.22A5.33,5.33,0,0,1,38.47,35.42Z"/></g></g></svg>